<svg width="44" height="41" viewBox="0 0 44 41" fill="none" xmlns="http://www.w3.org/2000/svg">
<path fill-rule="evenodd" clip-rule="evenodd" d="M24.6882 34.6536C25.3015 34.6565 25.7998 34.1579 25.7998 33.5404V25.6268L28.045 27.4302C29.1774 28.331 30.5528 26.6035 29.4235 25.6892L25.384 22.4448C24.9816 22.1331 24.4037 22.1391 24.0012 22.4463L19.9617 25.6907C18.8368 26.6005 20.2034 28.3355 21.3401 27.4316L23.5853 25.6284V33.5375C23.584 34.1519 24.0778 34.6521 24.6882 34.6536" fill="white"/>
<path fill-rule="evenodd" clip-rule="evenodd" d="M36.4882 8.07067H25.2057C23.5766 8.07511 22.0566 7.24104 21.1764 5.86077L19.6726 3.50686C18.3886 1.4854 16.1683 0.263923 13.7844 0.268445H7.00282C3.13718 0.27288 0.00440554 3.42676 0 7.31818V29.0405C0.0147715 30.4921 2.19957 30.5009 2.21141 29.0405V7.31818C2.21435 4.65564 4.35794 2.49765 7.00282 2.4947H13.7844C15.415 2.49174 16.9334 3.3258 17.8136 4.70755L19.3173 7.06294C20.6029 9.08292 22.8232 10.3014 25.2057 10.2969H36.4882C39.133 10.2999 41.2767 12.4579 41.2797 15.1205V32.0088C41.2752 35.4907 38.4726 38.312 35.0139 38.3165H8.47704H7.54237C6.35849 38.3239 5.46063 37.1396 5.77325 35.9924L9.36601 22.145C9.91592 20.0197 11.8236 18.5355 14.0056 18.5355H37.9625C39.3969 18.534 39.4176 16.3138 37.9625 16.3093H14.0056C10.8182 16.3063 8.03035 18.4718 7.22396 21.5766L3.63112 35.4239C2.93677 37.953 4.92704 40.5547 7.52907 40.5368H35.0081C39.6874 40.5309 43.4792 36.7136 43.4851 32.0029V15.1205C43.4807 11.2319 40.3509 8.07806 36.4882 8.07067" fill="white"/>
</svg>
